<svg width="24" height="24" viewBox="0 0 24 24" fill="none" xmlns="http://www.w3.org/2000/svg">
<g clip-path="url(#clip0_523_87)">
<path fill-rule="evenodd" clip-rule="evenodd" d="M24 12.2724C24 11.4212 23.9215 10.6039 23.7773 9.81818H12.2451V14.4599H18.8355C18.5517 15.9601 17.6888 17.2307 16.3922 18.082V21.0924H20.3501C22.6653 19.0033 24.0011 15.9273 24.0011 12.2724H24Z" fill="#3E82F1"/>
<path fill-rule="evenodd" clip-rule="evenodd" d="M12.2452 24C15.5514 24 18.3234 22.9249 20.3491 21.0924L16.3912 18.0819C15.2941 18.8021 13.8925 19.2271 12.2441 19.2271C9.05447 19.2271 6.35512 17.1165 5.39189 14.2802H1.30249V17.389C3.31777 21.3106 7.45793 24 12.2452 24Z" fill="#32A753"/>
<path fill-rule="evenodd" clip-rule="evenodd" d="M5.39293 14.2802C5.14838 13.5601 5.0088 12.7913 5.0088 12C5.0088 11.2087 5.14838 10.4399 5.39293 9.71983V6.61102H1.30238C0.472963 8.23099 0 10.0635 0 12C0 13.9365 0.472963 15.769 1.30238 17.389L5.39293 14.2802Z" fill="#F9BB00"/>
<path fill-rule="evenodd" clip-rule="evenodd" d="M12.2452 4.77287C14.0425 4.77287 15.6575 5.3788 16.9264 6.56693L20.439 3.12463C18.3176 1.18926 15.5456 0 12.2452 0C7.45793 0 3.31778 2.6894 1.30249 6.61102L5.39305 9.71983C6.35628 6.88347 9.05563 4.77287 12.2452 4.77287Z" fill="#E74133"/>
</g>
<defs>
<clipPath id="clip0_523_87">
<rect width="24" height="24" fill="white"/>
</clipPath>
</defs>
</svg>
