<svg width="51" height="20" viewBox="0 0 51 20" fill="none" xmlns="http://www.w3.org/2000/svg">
<path d="M35.6406 3.23438V11.4375H33.75V8.17188H32.5625V11.3438H30.7031V3.48438H32.5625V6.54688H33.75V3.23438H35.6406ZM23.9219 10.8125V4.04688H25.8125V6H27.75V4.04688H29.5938V10.8125H23.9219ZM25.8125 9.23438H27.75V7.54688H25.8125V9.23438ZM25.9375 17.2812V12.0469H35.6406V17.2812H25.9375ZM27.9219 15.6875H33.6719V13.6094H27.9219V15.6875ZM50.25 11.4219V12.9844H44.6875V17.4375H42.7188V12.9844H37.2344V11.4219H50.25ZM38.7656 10.0469V3.76562H40.7344V5.40625H46.7031V3.76562H48.7031V10.0469H38.7656ZM40.7344 8.45312H46.7031V6.96875H40.7344V8.45312Z" fill="white"/>
<path d="M11.9569 4.03382C11.367 4.6237 11.0482 5.38193 11 6.15384C11.7719 6.10567 12.5301 5.78683 13.12 5.19694C13.7099 4.60706 14.0287 3.84883 14.0769 3.07692C13.305 3.1251 12.5468 3.44393 11.9569 4.03382Z" fill="#3EB778" stroke="#3EB778"/>
<path d="M3.12003 12.4954C2.53014 11.9055 1.77191 11.5866 1 11.5385C1.04818 12.3104 1.36701 13.0686 1.9569 13.6585C2.54679 14.2484 3.30501 14.5672 4.07692 14.6154C4.02875 13.8435 3.70991 13.0852 3.12003 12.4954Z" fill="#3EB778" stroke="#3EB778"/>
<rect x="5.61548" width="3.84615" height="6.15385" rx="1" fill="#3EB778"/>
<rect x="5.61548" y="6.92308" width="3.84615" height="6.15385" rx="1" fill="#3EB778"/>
<rect x="5.61548" y="13.8462" width="3.84615" height="6.15385" rx="1" fill="#3EB778"/>
</svg>
